<?xml version="1.0" ?>
<!-- Uploaded to: SVG Repo, www.svgrepo.com, Generator: SVG Repo Mixer Tools -->
<svg width="800px" height="800px" viewBox="0 0 64 64" id="SVGRoot" version="1.1" xmlns="http://www.w3.org/2000/svg" xmlns:cc="http://creativecommons.org/ns#" xmlns:dc="http://purl.org/dc/elements/1.1/" xmlns:inkscape="http://www.inkscape.org/namespaces/inkscape" xmlns:rdf="http://www.w3.org/1999/02/22-rdf-syntax-ns#" xmlns:sodipodi="http://sodipodi.sourceforge.net/DTD/sodipodi-0.dtd" xmlns:svg="http://www.w3.org/2000/svg">
<title id="title7560"/>
<defs id="defs7542"/>
<g id="layer1">
<path d="m 23.257812,21.5 c -2.533333,0 -4.097881,0.247728 -5.226562,0.726562 -1.128681,0.478835 -1.774253,1.19473 -2.40625,1.953126 -1.263993,1.516791 -2.596542,3.36942 -8.5253906,5.345703 l -0.1113282,0.03711 -0.083984,0.08398 c -1.1473139,1.147314 -1.401404,2.812059 -1.2695313,4.394532 0.1318728,1.582472 0.6459671,3.122012 1.1757813,4.18164 L 6.9492188,38.5 h 4.9101562 c 0.260644,2.234012 2.096176,4 4.398437,4 2.302224,0 4.137743,-1.766042 4.398438,-4 h 21.203125 c 0.260644,2.234012 2.096176,4 4.398437,4 2.302224,0 4.137743,-1.766042 4.398438,-4 h 4.601562 c 1.125001,0 2.004722,-0.45789 2.517579,-1.179688 0.512856,-0.721797 0.675708,-1.649456 0.607421,-2.605468 -0.136573,-1.912024 -1.176978,-4.017075 -2.847656,-5.13086 L 55.410156,29.5 H 45.390625 C 42.052382,28.047991 40.638242,26.174501 39.125,24.535156 37.598995,22.881985 35.87686,21.5 32.257812,21.5 Z m 0,1 h 9 c 3.380952,0 4.658817,1.118015 6.132813,2.714844 1.473996,1.596828 3.069556,3.701126 6.669922,5.24414 L 45.15625,30.5 h 9.896484 c 1.284358,0.909349 2.22108,2.731836 2.332032,4.285156 0.05671,0.793988 -0.09489,1.49133 -0.425782,1.957032 C 56.628091,37.207889 56.132813,37.5 55.257812,37.5 h -5.5 V 38 c 0,1.938919 -1.561081,3.5 -3.5,3.5 -1.938918,0 -3.5,-1.561081 -3.5,-3.5 v -0.5 h -23 V 38 c 0,1.938919 -1.561081,3.5 -3.5,3.5 -1.938918,0 -3.5,-1.561081 -3.5,-3.5 V 37.5 H 7.6269531 C 7.1907156,36.560678 6.7404058,35.273541 6.6308594,33.958984 6.5147628,32.565826 6.7644427,31.262403 7.5820312,30.408203 13.492037,28.404035 15.170087,26.287302 16.392578,24.820312 17.010582,24.078708 17.488056,23.544603 18.421875,23.148438 19.355694,22.752272 20.791146,22.5 23.257812,22.5 Z" id="path1355" style="color:#000000;font-style:normal;font-variant:normal;font-weight:normal;font-stretch:normal;font-size:medium;line-height:normal;font-family:sans-serif;font-variant-ligatures:normal;font-variant-position:normal;font-variant-caps:normal;font-variant-numeric:normal;font-variant-alternates:normal;font-feature-settings:normal;text-indent:0;text-align:start;text-decoration:none;text-decoration-line:none;text-decoration-style:solid;text-decoration-color:#000000;letter-spacing:normal;word-spacing:normal;text-transform:none;writing-mode:lr-tb;direction:ltr;text-orientation:mixed;dominant-baseline:auto;baseline-shift:baseline;text-anchor:start;white-space:normal;shape-padding:0;clip-rule:nonzero;display:inline;overflow:visible;visibility:visible;opacity:1;isolation:auto;mix-blend-mode:normal;color-interpolation:sRGB;color-interpolation-filters:linearRGB;solid-color:#000000;solid-opacity:1;vector-effect:none;fill:#000000;fill-opacity:1;fill-rule:nonzero;stroke:none;stroke-width:0.99999994px;stroke-linecap:butt;stroke-linejoin:miter;stroke-miterlimit:4;stroke-dasharray:none;stroke-dashoffset:0;stroke-opacity:1;color-rendering:auto;image-rendering:auto;shape-rendering:auto;text-rendering:auto;enable-background:accumulate"/>
<path d="m 32.257812,23.5 v 1 c 0.833334,0 1.667387,0.424745 2.544922,1.138672 0.877536,0.713927 1.773552,1.69908 2.714844,2.703125 C 39.400161,30.349886 41.491145,32.5 44.257812,32.5 v -1 c -2.233333,0 -4.142349,-1.849886 -6.009765,-3.841797 C 37.314339,26.662248 36.399808,25.647401 35.433594,24.861328 34.46738,24.075256 33.424479,23.5 32.257812,23.5 Z" id="path1362" style="color:#000000;font-style:normal;font-variant:normal;font-weight:normal;font-stretch:normal;font-size:medium;line-height:normal;font-family:sans-serif;font-variant-ligatures:normal;font-variant-position:normal;font-variant-caps:normal;font-variant-numeric:normal;font-variant-alternates:normal;font-feature-settings:normal;text-indent:0;text-align:start;text-decoration:none;text-decoration-line:none;text-decoration-style:solid;text-decoration-color:#000000;letter-spacing:normal;word-spacing:normal;text-transform:none;writing-mode:lr-tb;direction:ltr;text-orientation:mixed;dominant-baseline:auto;baseline-shift:baseline;text-anchor:start;white-space:normal;shape-padding:0;clip-rule:nonzero;display:inline;overflow:visible;visibility:visible;opacity:1;isolation:auto;mix-blend-mode:normal;color-interpolation:sRGB;color-interpolation-filters:linearRGB;solid-color:#000000;solid-opacity:1;vector-effect:none;fill:#000000;fill-opacity:1;fill-rule:nonzero;stroke:none;stroke-width:0.99999994px;stroke-linecap:butt;stroke-linejoin:miter;stroke-miterlimit:4;stroke-dasharray:none;stroke-dashoffset:0;stroke-opacity:1;color-rendering:auto;image-rendering:auto;shape-rendering:auto;text-rendering:auto;enable-background:accumulate"/>
<path d="m 16.257812,35 c -1.374789,0 -2.5,1.125211 -2.5,2.5 0,1.374789 1.125211,2.5 2.5,2.5 1.37479,0 2.5,-1.125211 2.5,-2.5 0,-1.374789 -1.12521,-2.5 -2.5,-2.5 z m 0,1 c 0.83435,0 1.5,0.665651 1.5,1.5 0,0.834349 -0.66565,1.5 -1.5,1.5 -0.834349,0 -1.5,-0.665651 -1.5,-1.5 0,-0.834349 0.665651,-1.5 1.5,-1.5 z" id="path1364" style="color:#000000;font-style:normal;font-variant:normal;font-weight:normal;font-stretch:normal;font-size:medium;line-height:normal;font-family:sans-serif;font-variant-ligatures:normal;font-variant-position:normal;font-variant-caps:normal;font-variant-numeric:normal;font-variant-alternates:normal;font-feature-settings:normal;text-indent:0;text-align:start;text-decoration:none;text-decoration-line:none;text-decoration-style:solid;text-decoration-color:#000000;letter-spacing:normal;word-spacing:normal;text-transform:none;writing-mode:lr-tb;direction:ltr;text-orientation:mixed;dominant-baseline:auto;baseline-shift:baseline;text-anchor:start;white-space:normal;shape-padding:0;clip-rule:nonzero;display:inline;overflow:visible;visibility:visible;opacity:1;isolation:auto;mix-blend-mode:normal;color-interpolation:sRGB;color-interpolation-filters:linearRGB;solid-color:#000000;solid-opacity:1;vector-effect:none;fill:#000000;fill-opacity:1;fill-rule:nonzero;stroke:none;stroke-width:0.99999994;stroke-linecap:butt;stroke-linejoin:miter;stroke-miterlimit:4;stroke-dasharray:none;stroke-dashoffset:0;stroke-opacity:1;color-rendering:auto;image-rendering:auto;shape-rendering:auto;text-rendering:auto;enable-background:accumulate"/>
<path d="m 46.257812,35 c -1.374789,0 -2.5,1.125211 -2.5,2.5 0,1.374789 1.125211,2.5 2.5,2.5 1.37479,0 2.500001,-1.125211 2.5,-2.5 0,-1.374789 -1.12521,-2.5 -2.5,-2.5 z m 0,1 c 0.83435,0 1.5,0.665651 1.5,1.5 0,0.834349 -0.66565,1.5 -1.5,1.5 -0.834349,0 -1.5,-0.665651 -1.5,-1.5 0,-0.834349 0.665651,-1.5 1.5,-1.5 z" id="circle1366" style="color:#000000;font-style:normal;font-variant:normal;font-weight:normal;font-stretch:normal;font-size:medium;line-height:normal;font-family:sans-serif;font-variant-ligatures:normal;font-variant-position:normal;font-variant-caps:normal;font-variant-numeric:normal;font-variant-alternates:normal;font-feature-settings:normal;text-indent:0;text-align:start;text-decoration:none;text-decoration-line:none;text-decoration-style:solid;text-decoration-color:#000000;letter-spacing:normal;word-spacing:normal;text-transform:none;writing-mode:lr-tb;direction:ltr;text-orientation:mixed;dominant-baseline:auto;baseline-shift:baseline;text-anchor:start;white-space:normal;shape-padding:0;clip-rule:nonzero;display:inline;overflow:visible;visibility:visible;opacity:1;isolation:auto;mix-blend-mode:normal;color-interpolation:sRGB;color-interpolation-filters:linearRGB;solid-color:#000000;solid-opacity:1;vector-effect:none;fill:#000000;fill-opacity:1;fill-rule:nonzero;stroke:none;stroke-width:0.99999994;stroke-linecap:butt;stroke-linejoin:miter;stroke-miterlimit:4;stroke-dasharray:none;stroke-dashoffset:0;stroke-opacity:1;color-rendering:auto;image-rendering:auto;shape-rendering:auto;text-rendering:auto;enable-background:accumulate"/>
</g>
</svg>